G04 DipTrace 4.3.0.2*
G04 2 - Bottom.gbr*
%MOIN*%
G04 #@! TF.FileFunction,Copper,L2,Bot*
G04 #@! TF.Part,Single*
G04 #@! TA.AperFunction,CopperBalancing*
%ADD13C,0.012992*%
G04 #@! TA.AperFunction,Conductor*
%ADD16C,0.011024*%
G04 #@! TA.AperFunction,ViaPad*
%ADD18C,0.023622*%
G04 #@! TA.AperFunction,CopperBalancing*
%ADD23C,0.025*%
G04 #@! TA.AperFunction,ComponentPad*
%ADD24R,0.03937X0.03937*%
%ADD25C,0.03937*%
G04 #@! TA.AperFunction,ViaPad*
%ADD32C,0.031496*%
%ADD34C,0.020079*%
%FSLAX26Y26*%
G04*
G70*
G90*
G75*
G01*
G04 Bottom*
%LPD*%
X637449Y506201D2*
D13*
X599950D1*
X641339Y1393701D2*
D16*
Y1358564D1*
X762451Y1237451D1*
X762453Y1174951D1*
X562450Y618702D2*
X537451Y643701D1*
Y731201D1*
Y787451D1*
X593701Y843701D1*
Y1062450D1*
X912450Y793701D2*
X687451D1*
X624951Y731201D1*
X537451D1*
X918701Y1112451D2*
X831201Y1199950D1*
X812451D1*
X606201Y1106201D2*
X624950Y1087451D1*
Y837450D1*
X593701Y806201D1*
X574950Y768701D2*
X618701D1*
X672106Y822106D1*
Y1081201D1*
X949950Y806201D2*
X937450D1*
X921545Y822106D1*
X672106D1*
X649902Y899902D2*
Y1118749D1*
X631201Y1137451D1*
X606201D1*
D32*
X637449Y506201D3*
D34*
X762453Y1174951D3*
D3*
X562450Y618702D3*
X593701Y1062450D3*
X912450Y793701D3*
X918701Y1112451D3*
X812451Y1199950D3*
X606201Y1106201D3*
X593701Y806201D3*
X574950Y768701D3*
X672106Y1081201D3*
X949950Y806201D3*
X649902Y899902D3*
X606201Y1137451D3*
D32*
X462451Y1499950D3*
X699950Y1487451D3*
X931201Y1306201D3*
X943701Y1162451D3*
X449950Y706201D3*
X756201Y449950D3*
X774950Y568701D3*
X512451Y431201D3*
X431201Y518701D3*
X756201Y893701D3*
X943701Y862451D3*
X474950Y1106201D3*
D18*
X799950Y1156201D3*
X549950Y937451D3*
X568701D3*
X831201Y1031201D3*
X949951D3*
X568701Y699950D3*
X681201Y743701D3*
X481201Y762451D3*
X424458Y1521686D2*
D23*
X953504D1*
X424458Y1496818D2*
X953504D1*
X424458Y1471949D2*
X953504D1*
X424458Y1447080D2*
X953504D1*
X424458Y1422211D2*
X445600D1*
X732129D2*
X953504D1*
X424458Y1397343D2*
X445600D1*
X741280D2*
X953504D1*
X424458Y1372474D2*
X445600D1*
X736507D2*
X953504D1*
X424458Y1347605D2*
X610631D1*
X707692D2*
X953504D1*
X553605Y1322736D2*
X631874D1*
X722458D2*
X953504D1*
X575764Y1297867D2*
X656741D1*
X747325D2*
X953504D1*
X587102Y1272999D2*
X681610D1*
X772193D2*
X953504D1*
X591337Y1248130D2*
X706478D1*
X793257D2*
X953504D1*
X589345Y1223261D2*
X729694D1*
X852987D2*
X953504D1*
X580752Y1198392D2*
X729694D1*
X878052D2*
X953504D1*
X563257Y1173524D2*
X725192D1*
X902920D2*
X953504D1*
X424458Y1148655D2*
X449403D1*
X525508D2*
X570764D1*
X665277D2*
X737176D1*
X787714D2*
X837203D1*
X927787D2*
X953504D1*
X424458Y1123786D2*
X571714D1*
X682232D2*
X862071D1*
X424458Y1098917D2*
X569686D1*
X704534D2*
X884157D1*
X424458Y1074049D2*
X558402D1*
X708643D2*
X953504D1*
X424458Y1049180D2*
X559047D1*
X704857D2*
X953504D1*
X424458Y1024311D2*
X560949D1*
X704857D2*
X953504D1*
X424458Y999442D2*
X560949D1*
X704857D2*
X953504D1*
X424458Y974573D2*
X560949D1*
X704857D2*
X953504D1*
X424458Y949705D2*
X560949D1*
X704857D2*
X953504D1*
X424458Y924836D2*
X560949D1*
X704857D2*
X953504D1*
X424458Y899967D2*
X560949D1*
X704857D2*
X953504D1*
X424458Y875098D2*
X560949D1*
X704857D2*
X953504D1*
X424458Y850230D2*
X554938D1*
X935197D2*
X953504D1*
X424458Y825361D2*
X530071D1*
X424458Y800492D2*
X507643D1*
X424458Y775623D2*
X504701D1*
X424458Y750755D2*
X504701D1*
X689786D2*
X953504D1*
X424458Y725886D2*
X504701D1*
X664917D2*
X953504D1*
X424458Y701017D2*
X504701D1*
X629535D2*
X953504D1*
X424458Y676148D2*
X504701D1*
X570201D2*
X953504D1*
X424458Y651280D2*
X504701D1*
X577144D2*
X953504D1*
X424458Y626411D2*
X510119D1*
X598873D2*
X953504D1*
X424458Y601542D2*
X529694D1*
X595213D2*
X953504D1*
X424458Y576673D2*
X820285D1*
X424458Y551804D2*
X795507D1*
X424458Y526936D2*
X782822D1*
X424458Y502067D2*
X777564D1*
X424458Y477198D2*
X778568D1*
X424458Y452329D2*
X786033D1*
X424458Y427461D2*
X801822D1*
X732194Y1192102D2*
X732190Y1224923D1*
X619945Y1337169D1*
X614526Y1344543D1*
X611562Y1353210D1*
X611440Y1353936D1*
X605969Y1351483D1*
X596888Y1349528D1*
X587600Y1349503D1*
X578509Y1351409D1*
X570014Y1355165D1*
X567713Y1356827D1*
X567348Y1356831D1*
X565231Y1355283D1*
X556756Y1351483D1*
X547676Y1349528D1*
X539303Y1349505D1*
X539311Y1348091D1*
X448091D1*
Y1439311D1*
X539311D1*
Y1437987D1*
X547440Y1437899D1*
X556530Y1435992D1*
X565025Y1432236D1*
X567327Y1430575D1*
X569808Y1432118D1*
X578283Y1435919D1*
X587364Y1437874D1*
X596652Y1437899D1*
X605743Y1435992D1*
X614238Y1432236D1*
X616539Y1430575D1*
X619021Y1432118D1*
X627496Y1435919D1*
X636576Y1437874D1*
X645865Y1437899D1*
X654955Y1435992D1*
X662114Y1432827D1*
X666349Y1435576D1*
X674711Y1439399D1*
X683646Y1441571D1*
X692829Y1442013D1*
X701932Y1440709D1*
X710622Y1437706D1*
X718588Y1433112D1*
X725539Y1427093D1*
X731227Y1419869D1*
X735445Y1411698D1*
X738039Y1402877D1*
X738917Y1393701D1*
X738047Y1384570D1*
X735461Y1375745D1*
X731252Y1367571D1*
X725571Y1360341D1*
X718625Y1354316D1*
X710664Y1349715D1*
X701976Y1346703D1*
X696741Y1345949D1*
X783832Y1258858D1*
X785344Y1257232D1*
X790211Y1249483D1*
X792539Y1240634D1*
X792707Y1237451D1*
Y1228589D1*
X795129Y1230114D1*
X803525Y1233570D1*
X812531Y1234734D1*
X821530Y1233529D1*
X829495Y1230209D1*
X831201Y1230207D1*
X840247Y1228823D1*
X848471Y1224791D1*
X852613Y1221327D1*
X927957Y1145983D1*
X936161Y1142534D1*
X943353Y1136990D1*
X948864Y1129773D1*
X952320Y1121377D1*
X953484Y1112451D1*
X952278Y1103371D1*
X948783Y1094990D1*
X943240Y1087799D1*
X936024Y1082287D1*
X927626Y1078832D1*
X918621Y1077668D1*
X909621Y1078873D1*
X901240Y1082367D1*
X894049Y1087912D1*
X888538Y1095129D1*
X885255Y1103108D1*
X821894Y1166470D1*
X821377Y1166332D1*
X812371Y1165168D1*
X803371Y1166373D1*
X796749Y1169134D1*
X796453Y1169072D1*
X796029Y1165871D1*
X792534Y1157490D1*
X786990Y1150299D1*
X779773Y1144787D1*
X771377Y1141332D1*
X762370Y1140168D1*
X753371Y1141374D1*
X744990Y1144867D1*
X737799Y1150412D1*
X732287Y1157629D1*
X728832Y1166025D1*
X727668Y1175031D1*
X728873Y1184030D1*
X732193Y1191995D1*
X728873Y1184030D1*
X727668Y1175031D1*
X728832Y1166025D1*
X732287Y1157629D1*
X737799Y1150412D1*
X744990Y1144867D1*
X753371Y1141374D1*
X762370Y1140168D1*
X771377Y1141332D1*
X779773Y1144787D1*
X786990Y1150299D1*
X792534Y1157490D1*
X796029Y1165871D1*
X796453Y1169072D1*
X680157Y1118727D2*
X680159Y1114916D1*
X681186Y1114778D1*
X689567Y1111283D1*
X696759Y1105740D1*
X702270Y1098524D1*
X705726Y1090126D1*
X706890Y1081201D1*
X705684Y1072121D1*
X702364Y1064157D1*
X702362Y852364D1*
X921545Y852362D1*
X930591Y850979D1*
X938816Y846948D1*
X942951Y843488D1*
X945719Y840722D1*
X950031Y840984D1*
X955999Y840185D1*
X956004Y1015685D1*
Y1546547D1*
X858437Y1546555D1*
X421950D1*
X421942Y1321175D1*
X428887Y1326572D1*
X436665Y1331555D1*
X444865Y1335808D1*
X453417Y1339299D1*
X462252Y1341999D1*
X471295Y1343883D1*
X480471Y1344937D1*
X489706Y1345152D1*
X498923Y1344526D1*
X508043Y1343066D1*
X516995Y1340781D1*
X525699Y1337693D1*
X534088Y1333825D1*
X542091Y1329211D1*
X549640Y1323887D1*
X556675Y1317900D1*
X563135Y1311298D1*
X568969Y1304135D1*
X574126Y1296472D1*
X578566Y1288373D1*
X582251Y1279902D1*
X585150Y1271131D1*
X587239Y1262133D1*
X588501Y1252983D1*
X588927Y1243701D1*
X588512Y1234528D1*
X587259Y1225375D1*
X585178Y1216375D1*
X582289Y1207601D1*
X578613Y1199127D1*
X574182Y1191021D1*
X569033Y1183353D1*
X563207Y1176184D1*
X556753Y1169575D1*
X549726Y1163580D1*
X542182Y1158249D1*
X534185Y1153626D1*
X525801Y1149749D1*
X517097Y1146652D1*
X508150Y1144358D1*
X499030Y1142887D1*
X489815Y1142252D1*
X480580Y1142457D1*
X471402Y1143501D1*
X462357Y1145377D1*
X453520Y1148066D1*
X444963Y1151547D1*
X436760Y1155793D1*
X428975Y1160766D1*
X421954Y1166211D1*
X421949Y962005D1*
Y421957D1*
X519516Y421949D1*
X809509Y421948D1*
X808672Y422728D1*
X802518Y429618D1*
X797017Y437039D1*
X792214Y444929D1*
X788147Y453223D1*
X784852Y461852D1*
X782354Y470745D1*
X780677Y479829D1*
X779832Y489028D1*
X779827Y498265D1*
X780663Y507465D1*
X782331Y516550D1*
X784818Y525446D1*
X788104Y534080D1*
X792161Y542378D1*
X796957Y550273D1*
X802450Y557699D1*
X808596Y564596D1*
X815344Y570904D1*
X822636Y576572D1*
X830416Y581555D1*
X838615Y585808D1*
X847168Y589299D1*
X856001Y591999D1*
X865045Y593883D1*
X874222Y594937D1*
X883457Y595152D1*
X892673Y594526D1*
X901794Y593066D1*
X910744Y590781D1*
X919450Y587693D1*
X927839Y583825D1*
X935841Y579211D1*
X943390Y573887D1*
X950424Y567900D1*
X956008Y562194D1*
X956004Y771951D1*
X949870Y771417D1*
X940871Y772623D1*
X940306Y772858D1*
X936990Y769049D1*
X929773Y763538D1*
X921377Y760081D1*
X912370Y758917D1*
X903371Y760123D1*
X895407Y763444D1*
X699980Y763445D1*
X646357Y709819D1*
X644732Y708307D1*
X636983Y703441D1*
X628134Y701113D1*
X624951Y700945D1*
X567707Y700948D1*
X567702Y656238D1*
X571711Y652228D1*
X579912Y648785D1*
X587102Y643240D1*
X592614Y636024D1*
X596070Y627627D1*
X597234Y618702D1*
X596029Y609622D1*
X592534Y601240D1*
X586990Y594050D1*
X579773Y588538D1*
X571377Y585083D1*
X562370Y583919D1*
X553371Y585123D1*
X544990Y588618D1*
X537799Y594163D1*
X532287Y601379D1*
X529004Y609358D1*
X516073Y622290D1*
X514558Y623919D1*
X509692Y631668D1*
X507364Y640518D1*
X507196Y643701D1*
Y787432D1*
X507276Y789651D1*
X509314Y798572D1*
X513925Y806476D1*
X516058Y808845D1*
X563441Y856230D1*
X563445Y1045289D1*
X560081Y1053525D1*
X558917Y1062531D1*
X560123Y1071530D1*
X563618Y1079912D1*
X569161Y1087102D1*
X574736Y1091360D1*
X572581Y1097276D1*
X571417Y1106281D1*
X572623Y1115281D1*
X575248Y1121575D1*
X572581Y1128525D1*
X571417Y1137531D1*
X572623Y1146530D1*
X576118Y1154912D1*
X581661Y1162102D1*
X588878Y1167614D1*
X597276Y1171070D1*
X606281Y1172234D1*
X615281Y1171029D1*
X623244Y1167709D1*
X631201Y1167707D1*
X640247Y1166323D1*
X648471Y1162291D1*
X652609Y1158831D1*
X671295Y1140144D1*
X676714Y1132769D1*
X679678Y1124102D1*
X680157Y1118727D1*
X493701Y1439276D2*
D13*
Y1348126D1*
X448126Y1393701D2*
X493701D1*
D24*
D3*
D25*
X542913D3*
X592126D3*
X641339D3*
X690551D3*
M02*
