G04 DipTrace 4.3.0.2*
G04 BottomSilk.gbr*
%MOIN*%
G04 #@! TF.FileFunction,Legend,Bot*
G04 #@! TF.Part,Single*
%FSLAX26Y26*%
G04*
G70*
G90*
G75*
G01*
G04 BotSilk*
%LPD*%
G36*
X673789Y713041D2*
Y710312D1*
X675155Y689843D1*
X675610Y683474D1*
X676065Y683019D1*
Y679835D1*
X675610Y679380D1*
X674699Y676651D1*
X673334Y671193D1*
X672424Y666644D1*
Y659821D1*
X672879Y658456D1*
X674244Y655727D1*
X675155Y654362D1*
X677430Y652088D1*
X678796Y651178D1*
X681072Y650268D1*
X682892Y649813D1*
X686079D1*
X686989Y650268D1*
X688354Y651178D1*
X693816Y656637D1*
X694727Y658456D1*
Y659366D1*
X695214Y659637D1*
X695609Y659608D1*
X696092Y659366D1*
Y658456D1*
X697002Y656637D1*
X699733Y652543D1*
X702009Y650268D1*
X702920Y649813D1*
X704285Y649358D1*
X706561D1*
X708837Y649813D1*
X710657Y650268D1*
X712023Y650723D1*
X713843Y652088D1*
X714754Y652998D1*
X716574Y655272D1*
X718395Y658911D1*
X718850Y660276D1*
X719305Y662550D1*
Y665279D1*
X718850Y668918D1*
X717940Y671647D1*
X716574Y673467D1*
X716119Y677106D1*
X715664Y680290D1*
X714754Y687568D1*
X714299Y690752D1*
X713843Y694391D1*
X713388Y697576D1*
X712478Y704854D1*
X712023Y708038D1*
X711112Y715316D1*
X710657Y718500D1*
X710202Y722139D1*
X709747Y722594D1*
Y723504D1*
X714299Y723958D1*
X721126Y724413D1*
X726588Y724868D1*
X731140Y725323D1*
X739333Y726233D1*
X740395Y726688D1*
X741457D1*
X742519Y726233D1*
X742974Y725778D1*
Y718500D1*
X743884Y703944D1*
X744339Y696211D1*
X744795Y688933D1*
X745250Y681200D1*
X745705Y680745D1*
Y672557D1*
X745250Y672102D1*
X744339Y666644D1*
X743884Y662550D1*
Y657091D1*
X744339Y655272D1*
X744795Y653907D1*
X745705Y652088D1*
X746615Y650723D1*
X747526Y649813D1*
X748891Y648904D1*
X751622Y647994D1*
X752987D1*
X755263Y648449D1*
X757994Y649358D1*
X760725Y650723D1*
X763456Y653452D1*
X763911Y654362D1*
X764367Y655727D1*
Y657546D1*
X764706Y657838D1*
X764937Y657800D1*
X765196Y657424D1*
X765277Y657091D1*
X765732Y655727D1*
X767098Y652998D1*
X770284Y649813D1*
X771649Y648904D1*
X772559Y648449D1*
X773925Y647994D1*
X778932D1*
X779842Y648449D1*
X782573Y651178D1*
X783028Y652088D1*
X783939Y653452D1*
X784849Y655272D1*
X785304Y656637D1*
X785759Y657546D1*
X786670Y661185D1*
Y664824D1*
X785759Y667554D1*
X785304Y668463D1*
X783483Y671193D1*
X782118Y672557D1*
Y674377D1*
X781208Y679835D1*
X780752Y682110D1*
X779387Y690297D1*
X778932Y692572D1*
X778021Y698030D1*
X777566Y700305D1*
X776656Y705763D1*
X776201Y708038D1*
X775290Y713496D1*
X774835Y715771D1*
X773925Y721229D1*
X773470Y723504D1*
X772559Y728962D1*
X772104Y731236D1*
X771649Y731691D1*
Y733056D1*
X772104Y733511D1*
X774835Y734421D1*
X783939Y738969D1*
X789401Y742608D1*
X791221Y743973D1*
X793497Y745793D1*
X802145Y754435D1*
X804421Y757164D1*
X807152Y760803D1*
X809883Y764897D1*
X810338Y765807D1*
X811248Y767172D1*
X811704Y768082D1*
X812614Y769446D1*
X816710Y777634D1*
X817165Y778999D1*
X818076Y780818D1*
X818531Y782183D1*
X818986Y783092D1*
X820807Y788551D1*
X821262Y790371D1*
X821717Y791735D1*
X822172Y794010D1*
X822627Y795829D1*
X823083Y798558D1*
X823538Y801742D1*
X823993Y804472D1*
X824903Y810840D1*
X825358Y813569D1*
X825814Y816753D1*
X826269Y819483D1*
X827179Y825851D1*
X827634Y829490D1*
X828089Y833584D1*
X828545Y838588D1*
X829000Y845866D1*
Y854053D1*
X828545Y859512D1*
X828089Y862241D1*
X827179Y865880D1*
X826724Y867245D1*
X824448Y871794D1*
X823538Y873158D1*
X823083Y874068D1*
X822627Y875433D1*
X822011Y876048D1*
X822638Y876252D1*
X823083Y876342D1*
X826724Y872703D1*
Y872248D1*
X827634Y871339D1*
X833096Y869974D1*
X835372Y869519D1*
X838103Y869064D1*
X845841D1*
X850392Y869974D1*
X854489Y870884D1*
X862227Y872703D1*
X865868Y873613D1*
X872695Y875433D1*
X877247Y876797D1*
X881343Y878162D1*
X885895Y879981D1*
X889536Y881801D1*
X890902Y882711D1*
X893633Y885440D1*
X893721Y885762D1*
X894088Y886350D1*
X894998Y886805D1*
X900005Y891353D1*
X903191Y894083D1*
X905922Y896357D1*
X908198Y898177D1*
X913660Y902270D1*
X919122Y905909D1*
X919577Y906364D1*
X924129Y908639D1*
X925494Y909094D1*
X927770Y910003D1*
X928680Y910458D1*
X930956Y911823D1*
X934598Y914552D1*
X941880Y921830D1*
X943701Y924105D1*
Y925014D1*
X942790Y926834D1*
X942335Y928198D1*
X941425Y930018D1*
X940515Y931383D1*
X939604Y933202D1*
X937784Y935931D1*
X936418Y937751D1*
X935508Y938661D1*
X934142Y939570D1*
X933232Y940025D1*
X930501Y940480D1*
X920487D1*
X913205Y940025D1*
X907743Y939570D1*
X903191Y939115D1*
X902584Y938661D1*
X901978D1*
X901371Y939115D1*
X851303Y942300D1*
X837193Y943209D1*
X822627D1*
X818986Y942755D1*
X815345D1*
X811704Y943209D1*
X804421Y943664D1*
X801235Y944119D1*
X798959Y944574D1*
X795318Y945484D1*
X791221Y946394D1*
X786670Y947303D1*
X783939Y947758D1*
X780752Y948213D1*
X775746Y948668D1*
X763911Y949123D1*
X761636Y949578D1*
X755263Y952762D1*
X749801Y954581D1*
X746615Y955491D1*
X738422Y957311D1*
X728409Y959130D1*
X718850Y960495D1*
X714299Y960950D1*
X702009Y961859D1*
X701469Y962371D1*
X701554Y962769D1*
X700644Y965498D1*
X700189Y969137D1*
X699733Y969592D1*
Y980054D1*
X700189Y980509D1*
Y982784D1*
X699733Y987787D1*
X699278Y990062D1*
X698368Y991881D1*
X697458Y992791D1*
X694727D1*
X693816Y992336D1*
X692906Y990517D1*
Y986878D1*
X694727Y974141D1*
X695637Y968683D1*
X696547Y964134D1*
X697458Y961404D1*
X694727Y960495D1*
X689265Y959130D1*
X686079Y958220D1*
X684713Y957765D1*
X683348D1*
X681982Y958220D1*
X679706Y958675D1*
X676975Y959585D1*
X672424Y961859D1*
X671968Y962314D1*
X670603Y963224D1*
X668782Y964589D1*
X665141Y967773D1*
X663320Y969137D1*
X661955Y969592D1*
X657858Y970502D1*
X651486Y971867D1*
X633280Y975506D1*
X625087Y976870D1*
X618714Y977780D1*
X615983Y978235D1*
X614163Y978690D1*
X611887Y979145D1*
X610066Y979600D1*
X607335Y980509D1*
X605515Y980964D1*
X595956Y984148D1*
X595046Y984603D1*
X590039Y986423D1*
X586398Y987787D1*
X580026Y990062D1*
X574564Y991881D1*
X571377Y992791D1*
X569557Y993246D1*
X565460Y993701D1*
X565005D1*
X561364Y993246D1*
X554536Y990972D1*
X550895Y990062D1*
X547709Y989607D1*
X543006Y989152D1*
X538302D1*
X533599Y989607D1*
X531323Y990062D1*
X529958Y990517D1*
X527227D1*
X525861Y989152D1*
X524951Y987333D1*
Y980054D1*
X525406Y977780D1*
X525861Y976415D1*
X526316Y974596D1*
X526771Y973231D1*
X527227Y972322D1*
X527682Y970957D1*
X528592Y969137D1*
X529047Y967773D1*
X529958Y965953D1*
X530868Y964589D1*
X531778Y962769D1*
X532689Y961404D1*
X533144Y960495D1*
X534964Y957765D1*
X536330Y955946D1*
X538151Y953672D1*
X545888Y945939D1*
X559543Y935022D1*
X562274Y932747D1*
X564550Y930928D1*
X567281Y928653D1*
X569557Y926834D1*
X572288Y924559D1*
X574564Y922740D1*
X577295Y920466D1*
X579570Y918646D1*
X582301Y916372D1*
X584577Y914552D1*
X587308Y912278D1*
X589129Y910913D1*
X657403D1*
X658010Y911368D1*
X658617D1*
X659224Y910913D1*
X661045Y910458D1*
X661955Y910003D1*
X663320Y908639D1*
Y908184D1*
X664231Y906364D1*
X664686Y904090D1*
X665141Y903635D1*
Y901361D1*
X664686Y900906D1*
X664231Y898631D1*
X663776Y896812D1*
X662865Y894992D1*
Y894537D1*
X659679Y891353D1*
X657858Y890444D1*
X656189Y889989D1*
X654521D1*
X652852Y890444D1*
X651941Y890898D1*
X649665Y893173D1*
Y894083D1*
X649210Y895447D1*
X648755Y895902D1*
Y901361D1*
X649210Y901816D1*
X650121Y904545D1*
X651031Y906364D1*
Y906819D1*
X653762Y909548D1*
X655583Y910458D1*
X657403Y910913D1*
X589129D1*
X590039Y910003D1*
X592315Y908184D1*
X597777Y903635D1*
X600053Y901816D1*
X602784Y899541D1*
X605059Y897722D1*
X610521Y893173D1*
X611432Y892718D1*
X612797Y891353D1*
Y890898D1*
X613252Y889989D1*
X743884D1*
X744339Y890444D1*
X744795Y893173D1*
X745250Y894537D1*
X746160Y896357D1*
Y896812D1*
X749346Y899996D1*
X751167Y900906D1*
X752684Y901361D1*
X754201D1*
X755718Y900906D1*
X757539Y899996D1*
X759360Y898177D1*
Y897722D1*
X759815Y896812D1*
X760270Y895447D1*
X760725Y894992D1*
Y888624D1*
X760270Y888169D1*
X759815Y886350D1*
X758905Y884530D1*
X757994Y883166D1*
Y882711D1*
X756174Y880891D1*
X754353Y879981D1*
X752987Y879527D1*
X751925Y879072D1*
X750863D1*
X749801Y879527D1*
X748436Y879981D1*
X747526Y880436D1*
X745705Y882256D1*
Y882711D1*
X744795Y884530D1*
X743884Y889989D1*
X613252D1*
X614163Y888169D1*
X614618Y886805D1*
X615073Y884530D1*
X615528Y884075D1*
Y882711D1*
X615073Y882256D1*
X614618Y880436D1*
Y879981D1*
X691996D1*
X694120Y880436D1*
X696244D1*
X698368Y879981D1*
X703375Y879527D1*
X706106Y879072D1*
X711568Y877707D1*
X715664Y876342D1*
X717485Y875433D1*
X718850Y874978D1*
X722492Y873158D1*
X722947Y872703D1*
X725223Y871339D1*
X727954Y869519D1*
X730229Y867700D1*
X731140Y867245D1*
X737967Y860422D1*
Y859967D1*
X739788Y857692D1*
X741153Y855873D1*
X741608Y854963D1*
X742519Y853599D1*
X742974Y852689D1*
X743884Y851324D1*
X745250Y848595D1*
X745705Y847230D1*
X746160Y846320D1*
X746615Y844956D1*
X747070Y844046D1*
X747526Y842227D1*
X747981Y840862D1*
X748436Y839042D1*
X748891Y836768D1*
X749346Y833584D1*
X749801Y833129D1*
Y820392D1*
X749346Y819938D1*
X748891Y816753D1*
X747981Y813114D1*
X746160Y807656D1*
X745250Y805836D1*
X744795Y804472D1*
X744339Y803562D1*
X743429Y802197D1*
X742519Y800378D1*
X739788Y796284D1*
X737967Y794010D1*
Y793555D1*
X731140Y786732D1*
X730229Y786277D1*
X727954Y784457D1*
X725223Y782638D1*
X722947Y781273D1*
X722492Y780818D1*
X718850Y778999D1*
X717485Y778544D1*
X715209Y777634D1*
X714299Y777179D1*
X711568Y776269D1*
X707926Y775360D1*
X705651Y774905D1*
X702464Y774450D1*
X697913Y773995D1*
X693361D1*
X688809Y774450D1*
X685168Y774905D1*
X682437Y775360D1*
X680617Y775814D1*
X673789Y778089D1*
X666506Y781728D1*
X666051Y782183D1*
X663320Y784002D1*
X661500Y785367D1*
X659224Y787186D1*
X658314Y787641D1*
X653307Y792645D1*
Y793100D1*
X651486Y795374D1*
X650121Y797194D1*
X648300Y799923D1*
X647845Y800833D1*
X646934Y802197D1*
X644204Y807656D1*
X642838Y811750D1*
X641928Y815389D1*
X641473Y818118D1*
X641017Y824031D1*
X640562Y824486D1*
Y830400D1*
X641017Y830855D1*
X641473Y835858D1*
X641928Y838588D1*
X642838Y842227D1*
X643748Y844956D1*
X644204Y845866D1*
X644659Y847230D1*
X647390Y852689D1*
X650121Y856783D1*
X652852Y860422D1*
Y860877D1*
X658769Y866790D1*
X659679Y867245D1*
X661955Y869064D1*
X663776Y870429D1*
X666051Y871794D1*
X669237Y873613D1*
X669693Y874068D1*
X670603Y874523D1*
X671968Y874978D1*
X675155Y876342D1*
X676065Y876797D1*
X678796Y877707D1*
X684258Y879072D1*
X686989Y879527D1*
X691996Y879981D1*
X614618D1*
X612342Y873158D1*
X611887Y871339D1*
X610977Y868609D1*
X610521Y866790D1*
X610066Y865425D1*
X607790Y856328D1*
X605970Y847230D1*
X605059Y841772D1*
X604149Y834494D1*
X603694Y829945D1*
X603239Y824031D1*
Y810840D1*
X603694Y808111D1*
X604149Y805836D1*
X605059Y802197D1*
X606880Y796739D1*
X607335Y795829D1*
X607790Y794464D1*
X608246Y793555D1*
X608701Y792190D1*
X613708Y782183D1*
X614618Y780818D1*
X615073Y779908D1*
X615983Y778544D1*
X616439Y777634D1*
X617349Y776269D1*
X617804Y775360D1*
X621445Y769901D1*
X622811Y768082D1*
X623721Y766717D1*
X627818Y761258D1*
X631459Y756710D1*
X636921Y750341D1*
X643748Y743063D1*
X646479Y740334D1*
X653307Y733966D1*
X656038Y731691D1*
X658314Y729872D1*
X659679Y728962D1*
X757084D1*
X757424Y729254D1*
X757654Y729216D1*
X757913Y728840D1*
X757994Y728507D1*
X760725Y709402D1*
X761180Y705763D1*
X764822Y680290D1*
X765277Y679835D1*
Y678926D1*
X764822Y678471D1*
X763911Y671193D1*
Y667099D1*
X763429Y666605D1*
X763194Y666678D1*
X762902Y667178D1*
X763001Y667554D1*
X762091Y669373D1*
X759360Y673012D1*
X758905Y684839D1*
X758449Y698030D1*
X757994Y711677D1*
X757539Y724868D1*
X757084Y728962D1*
X659679D1*
X660134Y728507D1*
X664231Y725778D1*
X666962Y724413D1*
X669237Y723958D1*
X672879Y723504D1*
X673334Y723049D1*
Y716680D1*
X673789Y713041D1*
X691540D1*
X691880Y713333D1*
X692116Y713307D1*
X692451Y713041D1*
Y708947D1*
X693361Y698940D1*
X693816Y693482D1*
X694271Y687568D1*
X694727Y680290D1*
X695182Y679835D1*
Y674377D1*
X694727Y673922D1*
Y669828D1*
X694244Y669334D1*
X694008Y669408D1*
X693816Y669828D1*
Y673012D1*
X693361Y677106D1*
X692906Y680745D1*
X692451Y688933D1*
X691996Y705763D1*
X691540Y713041D1*
X673789D1*
G37*
G36*
X591860Y884985D2*
X591710Y884433D1*
X591405Y884075D1*
X589129Y877252D1*
X588674Y875433D1*
X586853Y869974D1*
X587308Y869519D1*
X588674Y869064D1*
X589129Y870884D1*
X590494Y874978D1*
Y875433D1*
X591101Y875888D1*
X591708D1*
X592315Y875433D1*
X608701Y869974D1*
X609156Y870884D1*
Y872248D1*
X591405Y878162D1*
X591493Y878484D1*
X591860Y879072D1*
X593680Y884530D1*
X592770Y884985D1*
X591860D1*
G37*
G36*
X651031Y819938D2*
Y818118D1*
X651486Y815844D1*
X651941Y814024D1*
X652852Y811295D1*
X653307Y810385D1*
X653762Y809021D1*
X656948Y802652D1*
X658769Y799923D1*
X660134Y798103D1*
X663320Y794464D1*
X667417Y790825D1*
X669237Y789461D1*
X671968Y787641D1*
X674244Y786277D1*
X676975Y784912D1*
X681527Y783092D1*
X682892Y782638D1*
X686534Y781728D1*
X689265Y781273D1*
X692906Y780818D1*
X703375D1*
X706106Y781273D1*
X707926Y781728D1*
X712478Y783092D1*
X716119Y784457D1*
X721581Y787186D1*
X725678Y789916D1*
X727954Y791735D1*
X733415Y797194D1*
X736146Y800833D1*
X737057Y802197D1*
X737512Y803107D1*
X738422Y804472D1*
X740243Y808111D1*
X740698Y809475D1*
X741153Y810385D1*
X742519Y814479D1*
X742974Y816299D1*
X743429Y819028D1*
X743884Y825396D1*
Y826306D1*
X743429Y833129D1*
X742974Y835403D1*
X742519Y837223D1*
X740698Y842681D1*
X737967Y848140D1*
X735236Y852234D1*
X733415Y854508D1*
X727954Y859967D1*
X724312Y862696D1*
X722947Y863606D1*
X720671Y864970D1*
X716119Y867245D1*
X713843Y868155D1*
X709747Y869519D1*
X707926Y869974D1*
X705651Y870429D1*
X702009Y870884D1*
X692451D1*
X688809Y870429D1*
X686534Y869974D1*
X682892Y869064D1*
X680161Y868155D1*
X677886Y867245D1*
X672424Y864516D1*
X669693Y862696D1*
X667872Y861331D1*
X665141Y859057D1*
X662410Y856328D1*
X660134Y853599D1*
X658769Y851779D1*
X657858Y850414D1*
X657403Y849505D1*
X656493Y848140D1*
X653307Y841772D1*
X651941Y837678D1*
X651031Y834039D1*
X678341D1*
X681072Y834494D1*
X683803D1*
X686534Y834039D1*
X687899Y833584D1*
X690630Y832219D1*
X692451Y830400D1*
Y829945D1*
X692906Y828125D1*
X693250Y827514D1*
X693205Y827104D1*
X692906Y826761D1*
X692451Y824941D1*
Y824486D1*
X690175Y822212D1*
X688354Y821302D1*
X686989Y820847D1*
X684713Y820392D1*
X683196Y819938D1*
X681679D1*
X680161Y820392D1*
X677886Y820847D1*
X676520Y821302D1*
X674699Y822212D1*
X672424Y824486D1*
Y824941D1*
X671968Y826306D1*
X671513Y826761D1*
Y828125D1*
X671968Y828580D1*
X672424Y829945D1*
Y830400D1*
X674244Y832219D1*
X676975Y833584D1*
X678341Y834039D1*
X651031D1*
X650576Y831310D1*
Y820847D1*
X651031Y819938D1*
X702464D1*
X702009Y820392D1*
X701099Y820847D1*
X700559Y821359D1*
X700644Y821757D1*
X699733Y823122D1*
X699278Y823577D1*
Y826761D1*
X699733Y827216D1*
Y828125D1*
X702009Y830400D1*
X703830Y831310D1*
X705195Y831764D1*
X708381Y832219D1*
X708721Y832511D1*
X708957Y832485D1*
X709292Y832219D1*
X712478Y831764D1*
X713843Y831310D1*
X715664Y830400D1*
X717940Y828125D1*
Y827216D1*
X718395Y826761D1*
Y823577D1*
X717940Y823122D1*
X717030Y821757D1*
X715209Y819938D1*
X714299Y819483D1*
X712933Y819028D1*
X711112Y818573D1*
X709595Y818118D1*
X708078D1*
X706561Y818573D1*
X704740Y819028D1*
X703375Y819483D1*
X702464Y819938D1*
X651031D1*
G37*
G36*
X585487Y864516D2*
Y863151D1*
X585032Y862696D1*
X584122Y859057D1*
X583667Y856783D1*
X582756Y853144D1*
Y852689D1*
X584577Y852234D1*
X585032Y853599D1*
X585487Y855873D1*
X586398Y859512D1*
X586853Y861786D1*
X587193Y862078D1*
X587429Y862052D1*
X587763Y861786D1*
X591405Y860877D1*
X593680Y860422D1*
X593531Y859870D1*
X593225Y859512D1*
X592315Y855873D1*
X591860Y853599D1*
X593225Y853144D1*
X593680D1*
X594136Y854963D1*
X594591Y857238D1*
X595046Y859057D1*
Y859512D1*
X595805Y859967D1*
X596563D1*
X597322Y859512D1*
X599598Y859057D1*
X603239Y858147D1*
X603533Y857532D1*
X603239Y857238D1*
X602784Y854963D1*
X601873Y851324D1*
X601418Y849050D1*
Y848595D1*
X603239Y848140D1*
X604149Y851779D1*
X604604Y854053D1*
X605515Y857692D1*
X605970Y859967D1*
X604149Y860422D1*
X586398Y864516D1*
X585487D1*
G37*
G36*
X832641Y857692D2*
Y854053D1*
X833096Y851779D1*
X834006Y849959D1*
X835827Y848140D1*
X837193Y847685D1*
X840379D1*
X841744Y848140D1*
X842655Y848595D1*
X844020Y849959D1*
X844930Y851779D1*
X845386Y853144D1*
Y857692D1*
X853579Y858147D1*
Y860422D1*
X832641D1*
Y857692D1*
X834462D1*
X837496Y858147D1*
X840530D1*
X843565Y857692D1*
Y853599D1*
X843110Y853144D1*
Y852234D1*
X841289Y850414D1*
X839772Y849959D1*
X838255D1*
X836737Y850414D1*
X835827Y850869D1*
Y851324D1*
X834917Y853144D1*
X834462Y857692D1*
X832641D1*
G37*
G36*
X585032Y841772D2*
X581391Y840862D1*
X580481Y840407D1*
X580936Y839952D1*
X595956Y831764D1*
X599598Y829945D1*
X600508D1*
Y831764D1*
X600053Y832219D1*
X596411Y834039D1*
Y836313D1*
X596867Y836768D1*
X597322Y839952D1*
Y842227D1*
X598687Y842681D1*
X600963Y843136D1*
X602329Y843591D1*
X602784Y845866D1*
X601873D1*
X588674Y842681D1*
X585032Y841772D1*
X594136D1*
X594742Y842227D1*
X595349D1*
X595956Y841772D1*
Y839042D1*
X595501Y838588D1*
Y835858D1*
X594591Y834949D1*
X593924Y834995D1*
X593680Y835403D1*
X585487Y839497D1*
Y839952D1*
X587308Y840407D1*
X594136Y841772D1*
X585032D1*
G37*
G36*
X831731Y842681D2*
Y839952D1*
X831276Y839497D1*
Y838133D1*
X831731Y835858D1*
X832186Y834949D1*
X834006Y833129D1*
X834917Y832674D1*
X839013D1*
X839924Y833129D1*
X841744Y834949D1*
X841974Y835400D1*
X842220Y835821D1*
X842543Y836143D1*
X842776Y836122D1*
X843104Y835844D1*
X843565Y835403D1*
X845386Y834039D1*
X847661Y832219D1*
X849482Y830855D1*
X851758Y829035D1*
Y831764D1*
X851303Y832219D1*
X845841Y836313D1*
X844930Y836768D1*
X843110Y838588D1*
Y841772D1*
X843868Y842227D1*
X844627D1*
X845386Y841772D1*
X849937Y841317D1*
X852668D1*
Y843136D1*
X852213Y843591D1*
X837648Y844956D1*
X832641Y845411D1*
X832186D1*
X831731Y843136D1*
Y842681D1*
X833551D1*
X834310Y843136D1*
X835069D1*
X835827Y842681D1*
X840379Y842227D1*
X841744Y841772D1*
Y839042D1*
X841289Y838588D1*
X840834Y836768D1*
Y836313D1*
X839924Y835403D1*
X838558Y834949D1*
X837800Y834494D1*
X837041D1*
X836282Y834949D1*
X834917Y835403D1*
X834006Y835858D1*
Y836313D1*
X833551Y842681D1*
X831731D1*
G37*
G36*
X599598Y828125D2*
X596867Y827670D1*
X582301Y824941D1*
X580026Y824486D1*
X578660Y824031D1*
Y823577D1*
X579570Y823122D1*
X594591Y818118D1*
Y817663D1*
X592770Y817208D1*
X583667Y814479D1*
X579570Y813114D1*
X578660Y812660D1*
Y812205D1*
X580026Y811750D1*
X598232Y808111D1*
X599598D1*
Y809930D1*
X597777Y810385D1*
X590494Y811750D1*
X587763Y812205D1*
X585943Y812660D1*
Y813114D1*
X599598Y817663D1*
X600053Y818118D1*
X586398Y822667D1*
X585943Y823122D1*
X586853Y823577D1*
X589129Y824031D1*
X591860Y824486D1*
X596867Y825396D1*
X599142Y825851D1*
X599598Y826306D1*
Y828125D1*
G37*
G36*
X831731Y825851D2*
X830365Y824486D1*
X829455Y822667D1*
X829000Y820392D1*
Y819483D1*
X829455Y817208D1*
X830365Y815389D1*
X832641Y813114D1*
X835372Y811750D1*
X837193Y811295D1*
X839924Y810840D1*
X842199D1*
X844475Y811295D1*
X845841Y811750D1*
X846751Y812205D1*
X848117Y813114D1*
X849027Y814024D1*
X850392Y816753D1*
X850848Y818573D1*
Y820847D1*
X850392Y822212D1*
X849937Y823122D1*
X849027Y824486D1*
X848117Y825396D1*
X846751Y826306D1*
X844020Y827670D1*
X842199Y828125D1*
X835827D1*
X834462Y827670D1*
X832641Y826761D1*
X831731Y825851D1*
X836737D1*
X837800Y826306D1*
X838862D1*
X839924Y825851D1*
X843110Y825396D1*
X844475Y824941D1*
X846296Y824031D1*
X848572Y821757D1*
Y821302D1*
X849027Y820847D1*
Y818118D1*
X848572Y817663D1*
X847661Y815844D1*
X846296Y814479D1*
X845386Y814024D1*
X843565Y813569D1*
X841896Y813114D1*
X840227D1*
X838558Y813569D1*
X836282Y814024D1*
X834917Y814479D1*
X833096Y815389D1*
X831731Y816753D1*
Y817208D1*
X831276Y818573D1*
X830820Y819028D1*
Y821302D1*
X831276Y821757D1*
X831731Y823122D1*
Y823577D1*
X832641Y824486D1*
X834462Y825396D1*
X836737Y825851D1*
X831731D1*
G37*
G36*
X831276Y809930D2*
X829910Y809475D1*
X829000Y809021D1*
X827634Y807656D1*
X827179Y806746D1*
X826724Y805381D1*
X826269Y803107D1*
Y802197D1*
X826724Y800378D1*
X828545Y800833D1*
Y801742D1*
X828089Y802197D1*
Y804472D1*
X828545Y804927D1*
Y805836D1*
X829910Y807201D1*
X831124Y807656D1*
X832338D1*
X833551Y807201D1*
X834462Y806746D1*
X835372Y805836D1*
Y804927D1*
X835827Y803562D1*
X836282Y801742D1*
X836737Y800378D1*
X837648Y798558D1*
X838558Y797649D1*
X840379Y796739D1*
X841744Y796284D1*
X843110D1*
X844475Y796739D1*
X845841Y797649D1*
X846296Y798103D1*
X847206Y799468D1*
X847661Y800378D1*
X848117Y801742D1*
Y806291D1*
X847661Y806746D1*
X845841Y806291D1*
Y805836D1*
X846296Y805381D1*
Y801288D1*
X845841Y800833D1*
Y800378D1*
X844475Y799013D1*
X843110Y798558D1*
X841744D1*
X840379Y799013D1*
X838558Y800833D1*
Y801742D1*
X837648Y805381D1*
X836737Y807201D1*
X834917Y809021D1*
X834006Y809475D1*
X832641Y809930D1*
X831276D1*
G37*
G36*
X824903Y795829D2*
Y794464D1*
X824448Y794010D1*
X825814Y793555D1*
X832641Y791735D1*
X843565Y789006D1*
X844930D1*
X845386Y790825D1*
X844020Y791280D1*
X835372Y793555D1*
X826269Y795829D1*
X824903D1*
G37*
G36*
X823083Y782183D2*
X823993Y781273D1*
X826724Y778999D1*
X829000Y777179D1*
X831731Y774905D1*
X834006Y773085D1*
X836737Y770811D1*
X838558Y769446D1*
X839013Y770356D1*
X839468Y771721D1*
X837648Y773085D1*
X836737Y773540D1*
X835372Y774905D1*
X835827Y775360D1*
X837193Y779453D1*
X837648Y780363D1*
X838103Y781728D1*
X843110Y782638D1*
X843565Y783547D1*
X844020Y784912D1*
X837193D1*
X828089Y784457D1*
X821262Y784002D1*
Y783547D1*
X821717Y783092D1*
X823083Y782183D1*
X825814D1*
X829455Y782638D1*
X833096D1*
X836737Y782183D1*
X836588Y781631D1*
X836282Y781273D1*
X834917Y777179D1*
Y776269D1*
X834362Y775795D1*
X833836Y775853D1*
X833551Y776269D1*
X828089Y780363D1*
X825814Y782183D1*
X823083D1*
G37*
G36*
X820352Y773995D2*
X818986Y773540D1*
X818076Y773085D1*
X816710Y772175D1*
X816255Y771721D1*
X815345Y770356D1*
X813979Y767627D1*
X813524Y766262D1*
Y765352D1*
X813979Y764897D1*
X815345D1*
X815800Y767172D1*
X816710Y768991D1*
Y769446D1*
X818076Y770811D1*
X818986Y771266D1*
X820807Y771721D1*
X821717Y772175D1*
X822627D1*
X823538Y771721D1*
X825358Y771266D1*
X826724Y770811D1*
X828545Y769901D1*
X829000Y769446D1*
X829910Y768991D1*
X831731Y767172D1*
Y766717D1*
X832641Y764897D1*
X833096Y764443D1*
Y761713D1*
X832641Y761258D1*
X831731Y759439D1*
X831581Y758887D1*
X831276Y758529D1*
X828545Y757164D1*
Y756255D1*
X829000Y755345D1*
X829455D1*
X831276Y756255D1*
X833096Y758074D1*
X834006Y759439D1*
X834462Y760349D1*
X834917Y761713D1*
Y765807D1*
X834006Y767627D1*
X833096Y768991D1*
X831276Y770811D1*
X828545Y772630D1*
X827634Y773085D1*
X824903Y773995D1*
X820352D1*
G37*
G36*
X811704Y764443D2*
X810793Y763533D1*
X805331Y756710D1*
X804421Y755345D1*
Y754890D1*
X805786Y754435D1*
X807607Y753980D1*
X821262Y751251D1*
X823083Y750796D1*
X824448Y750341D1*
Y749886D1*
X823538Y748977D1*
X819896Y744428D1*
X818986Y743063D1*
Y742608D1*
X819441Y742154D1*
X820352D1*
X821717Y743518D1*
X827179Y750341D1*
X828089Y751706D1*
X827179Y752161D1*
X820807Y753525D1*
X809883Y755800D1*
X807607Y756255D1*
Y756710D1*
X808973Y758074D1*
X812614Y762623D1*
X813069Y763533D1*
X812159Y764443D1*
X811704D1*
G37*
G36*
X802145Y752616D2*
X800780Y751251D1*
X806242Y745793D1*
X807152Y745338D1*
X808973Y743518D1*
Y743063D1*
X808214Y742608D1*
X807455D1*
X806697Y743063D1*
X801690Y743973D1*
X796228Y744883D1*
X794407D1*
X793952Y744428D1*
X793497Y743518D1*
X794407Y743063D1*
X799414Y742154D1*
X802145Y741699D1*
X803966Y741244D1*
Y740789D1*
X805331Y735330D1*
X805786Y733966D1*
X807152Y728507D1*
X807607D1*
X808973Y729872D1*
Y730327D1*
X807152Y737605D1*
X806697Y738969D1*
X806242Y739424D1*
Y740789D1*
X807455Y741244D1*
X808669D1*
X809883Y740789D1*
X812159Y740334D1*
X815800Y736695D1*
X817165Y738060D1*
X802600Y752616D1*
X802145D1*
G37*
G36*
X791221Y742154D2*
X789856Y740789D1*
X790311Y739879D1*
X795773Y733056D1*
X797138Y731236D1*
X802600Y724413D1*
X804421Y725778D1*
X800780Y730327D1*
X799414Y732146D1*
X793952Y738969D1*
X792587Y740789D1*
X791221Y742154D1*
G37*
M02*
