M48
INCH
T01C0.0098
T02C0.0118
T03C0.0157
T04C0.0236
T05C0.1024
%
T01
X+007625Y+011750
X+008125Y+012000
X+009187Y+011125
X+006721Y+010812
X+006062Y+011062
X+006062Y+011375
X+005937Y+010625
X+006499Y+008999
X+005937Y+008062
X+005750Y+007687
X+005625Y+006187
X+009125Y+007937
X+009500Y+008062
T02
X+008000Y+011562
X+008312Y+010312
X+009500Y+010312
X+005687Y+009375
X+005500Y+009375
X+004812Y+007625
X+005687Y+007000
X+006812Y+007437
T03
X+004625Y+015000
X+007000Y+014875
X+009312Y+013062
X+009437Y+011625
X+009437Y+008625
X+007562Y+008937
X+007750Y+005687
X+007562Y+004500
X+006374Y+005062
X+005125Y+004312
X+004312Y+005187
X+004500Y+007062
X+004750Y+011062
T04
X+004937Y+013937
X+005429Y+013937
X+005921Y+013937
X+006413Y+013937
X+006906Y+013937
T05
X+008812Y+004937
X+004875Y+012437
T00
M30
