G04 DipTrace 4.3.0.2*
G04 TopSilk.gbr*
%MOIN*%
G04 #@! TF.FileFunction,Legend,Top*
G04 #@! TF.Part,Single*
%ADD10C,0.004724*%
%ADD26C,0.005*%
%ADD52C,0.004632*%
%FSLAX26Y26*%
G04*
G70*
G90*
G75*
G01*
G04 TopSilk*
%LPD*%
X783711Y1420226D2*
D10*
Y1429675D1*
X841192Y1420226D2*
Y1429675D1*
X856052Y1419440D2*
Y1430463D1*
X893848Y1419440D2*
Y1430463D1*
X424803Y1013189D2*
Y1024213D1*
X462598Y1013189D2*
Y1024213D1*
X868848Y924212D2*
Y913188D1*
X831052Y924211D2*
X831053Y913187D1*
X925098Y924212D2*
X925099Y913188D1*
X887303Y924211D2*
Y913187D1*
X474215Y881053D2*
X463191Y881052D1*
X474213Y918848D2*
X463190D1*
X474214Y824803D2*
X463190D1*
X474214Y862598D2*
X463190D1*
X875688Y856349D2*
X886711D1*
X875688Y818554D2*
X886711D1*
X492961Y474804D2*
X481937D1*
X492961Y512600D2*
X481937D1*
X655464Y681053D2*
X644440Y681052D1*
X655463Y718848D2*
X644439D1*
X860827Y1542667D2*
X876575D1*
X860827Y1507234D2*
X876575D1*
X813583Y1541092D2*
Y1508808D1*
X751575Y1420472D2*
Y1570866D1*
X432677D1*
Y1420472D1*
G36*
X425591Y1393701D2*
X425506Y1392416D1*
X425255Y1391153D1*
X424841Y1389934D1*
X424272Y1388780D1*
X423557Y1387709D1*
X422708Y1386741D1*
X421740Y1385892D1*
X420669Y1385177D1*
X419515Y1384607D1*
X418295Y1384194D1*
X417033Y1383942D1*
X415748Y1383858D1*
X414463Y1383942D1*
X413201Y1384194D1*
X411981Y1384607D1*
X410827Y1385177D1*
X409756Y1385892D1*
X408788Y1386741D1*
X407939Y1387709D1*
X407224Y1388780D1*
X406655Y1389934D1*
X406241Y1391153D1*
X405990Y1392416D1*
X405906Y1393701D1*
D1*
X405990Y1394985D1*
X406241Y1396248D1*
X406655Y1397467D1*
X407224Y1398622D1*
X407939Y1399693D1*
X408788Y1400660D1*
X409756Y1401509D1*
X410827Y1402225D1*
X411981Y1402794D1*
X413201Y1403208D1*
X414463Y1403459D1*
X415748Y1403543D1*
X417033Y1403459D1*
X418295Y1403208D1*
X419515Y1402794D1*
X420669Y1402225D1*
X421740Y1401509D1*
X422708Y1400660D1*
X423557Y1399693D1*
X424272Y1398622D1*
X424841Y1397467D1*
X425255Y1396248D1*
X425506Y1394985D1*
X425591Y1393701D1*
D1*
G37*
X665501Y1281349D2*
D10*
X684399D1*
X665501Y1243554D2*
X684399D1*
X665503Y1331349D2*
X684400D1*
X665503Y1293554D2*
X684400D1*
X906052Y1415501D2*
Y1434399D1*
X943848Y1415501D2*
Y1434399D1*
X743554Y1228002D2*
X743553Y1246900D1*
X781349Y1228003D2*
Y1246901D1*
X874804Y1203003D2*
Y1221900D1*
X912600Y1203003D2*
Y1221900D1*
X824802Y1203003D2*
Y1221900D1*
X862597Y1203003D2*
Y1221900D1*
X671752Y868848D2*
X690650D1*
X671752Y831052D2*
X690650D1*
X671752Y818848D2*
X690650D1*
X671752Y781052D2*
X690650D1*
X941980Y980021D2*
D26*
X941978Y1082383D1*
X832925Y980019D2*
X832923Y1082381D1*
G36*
X850049Y1094192D2*
X850032Y1093935D1*
X849982Y1093683D1*
X849899Y1093439D1*
X849785Y1093208D1*
X849642Y1092994D1*
X849472Y1092800D1*
X849279Y1092630D1*
X849065Y1092487D1*
X848834Y1092374D1*
X848590Y1092291D1*
X848337Y1092241D1*
X848080Y1092224D1*
X847823Y1092241D1*
X847571Y1092291D1*
X847327Y1092374D1*
X847096Y1092487D1*
X846882Y1092630D1*
X846688Y1092800D1*
X846519Y1092994D1*
X846375Y1093208D1*
X846262Y1093439D1*
X846179Y1093683D1*
X846129Y1093935D1*
X846112Y1094192D1*
D1*
X846129Y1094449D1*
X846179Y1094702D1*
X846262Y1094945D1*
X846375Y1095176D1*
X846519Y1095391D1*
X846688Y1095584D1*
X846882Y1095754D1*
X847096Y1095897D1*
X847327Y1096011D1*
X847571Y1096094D1*
X847823Y1096144D1*
X848080Y1096161D1*
X848337Y1096144D1*
X848590Y1096094D1*
X848834Y1096011D1*
X849064Y1095897D1*
X849279Y1095754D1*
X849472Y1095584D1*
X849642Y1095391D1*
X849785Y1095176D1*
X849899Y1094946D1*
X849982Y1094702D1*
X850032Y1094449D1*
X850049Y1094192D1*
D1*
G37*
X784646Y792126D2*
D26*
X902756D1*
X784646Y595276D2*
X902756D1*
G36*
X753150Y767520D2*
X753183Y768034D1*
X753284Y768539D1*
X753449Y769026D1*
X753677Y769488D1*
X753963Y769916D1*
X754303Y770304D1*
X754690Y770643D1*
X755118Y770929D1*
X755580Y771157D1*
X756068Y771323D1*
X756573Y771423D1*
X757087Y771457D1*
X757600Y771423D1*
X758106Y771323D1*
X758593Y771157D1*
X759055Y770929D1*
X759483Y770643D1*
X759870Y770304D1*
X760210Y769916D1*
X760496Y769488D1*
X760724Y769026D1*
X760889Y768539D1*
X760990Y768034D1*
X761024Y767520D1*
D1*
X760990Y767006D1*
X760889Y766501D1*
X760724Y766013D1*
X760496Y765551D1*
X760210Y765123D1*
X759870Y764736D1*
X759483Y764396D1*
X759055Y764110D1*
X758593Y763882D1*
X758106Y763717D1*
X757600Y763616D1*
X757087Y763583D1*
X756573Y763616D1*
X756068Y763717D1*
X755580Y763882D1*
X755118Y764110D1*
X754690Y764396D1*
X754303Y764736D1*
X753963Y765123D1*
X753677Y765551D1*
X753449Y766013D1*
X753284Y766501D1*
X753183Y767006D1*
X753150Y767520D1*
D1*
G37*
G36*
X628887Y905759D2*
X628914Y906170D1*
X628994Y906574D1*
X629127Y906964D1*
X629309Y907333D1*
X629538Y907676D1*
X629810Y907986D1*
X630119Y908257D1*
X630462Y908486D1*
X630831Y908668D1*
X631222Y908801D1*
X631626Y908881D1*
X632037Y908908D1*
X632448Y908881D1*
X632852Y908801D1*
X633242Y908668D1*
X633612Y908486D1*
X633954Y908257D1*
X634264Y907986D1*
X634535Y907676D1*
X634764Y907333D1*
X634947Y906964D1*
X635079Y906574D1*
X635159Y906170D1*
X635186Y905759D1*
D1*
X635159Y905347D1*
X635079Y904943D1*
X634947Y904553D1*
X634764Y904184D1*
X634535Y903841D1*
X634264Y903531D1*
X633954Y903260D1*
X633612Y903031D1*
X633242Y902849D1*
X632852Y902716D1*
X632448Y902636D1*
X632037Y902609D1*
X631626Y902636D1*
X631222Y902716D1*
X630831Y902849D1*
X630462Y903031D1*
X630119Y903260D1*
X629810Y903531D1*
X629538Y903841D1*
X629309Y904184D1*
X629127Y904553D1*
X628994Y904943D1*
X628914Y905347D1*
X628887Y905759D1*
D1*
G37*
X535580Y920325D2*
D26*
X614320D1*
G36*
X568551Y561517D2*
X568517Y561003D1*
X568417Y560498D1*
X568251Y560010D1*
X568024Y559549D1*
X567738Y559120D1*
X567398Y558733D1*
X567011Y558394D1*
X566583Y558108D1*
X566121Y557880D1*
X565633Y557714D1*
X565128Y557614D1*
X564614Y557580D1*
X564100Y557614D1*
X563595Y557714D1*
X563108Y557880D1*
X562646Y558108D1*
X562217Y558394D1*
X561830Y558733D1*
X561491Y559120D1*
X561205Y559549D1*
X560977Y560010D1*
X560811Y560498D1*
X560711Y561003D1*
X560677Y561517D1*
D1*
X560711Y562031D1*
X560811Y562536D1*
X560977Y563024D1*
X561205Y563486D1*
X561491Y563914D1*
X561830Y564301D1*
X562217Y564640D1*
X562646Y564927D1*
X563108Y565154D1*
X563595Y565320D1*
X564100Y565420D1*
X564614Y565454D1*
X565128Y565420D1*
X565633Y565320D1*
X566121Y565154D1*
X566583Y564927D1*
X567011Y564640D1*
X567398Y564301D1*
X567738Y563914D1*
X568024Y563486D1*
X568251Y563024D1*
X568417Y562536D1*
X568517Y562031D1*
X568551Y561517D1*
D1*
G37*
X526819Y537108D2*
D26*
X448079D1*
X526819Y625297D2*
X448079D1*
G36*
X611858Y495819D2*
X611344Y495853D1*
X610839Y495953D1*
X610352Y496119D1*
X609890Y496346D1*
X609462Y496632D1*
X609074Y496972D1*
X608735Y497359D1*
X608449Y497787D1*
X608221Y498249D1*
X608055Y498737D1*
X607955Y499242D1*
X607921Y499756D1*
X607955Y500270D1*
X608055Y500775D1*
X608221Y501263D1*
X608449Y501724D1*
X608735Y502153D1*
X609074Y502540D1*
X609462Y502879D1*
X609890Y503165D1*
X610352Y503393D1*
X610839Y503559D1*
X611344Y503659D1*
X611858Y503693D1*
D1*
X612372Y503659D1*
X612877Y503559D1*
X613365Y503393D1*
X613827Y503165D1*
X614255Y502879D1*
X614642Y502540D1*
X614982Y502153D1*
X615268Y501724D1*
X615496Y501263D1*
X615661Y500775D1*
X615762Y500270D1*
X615795Y499756D1*
X615762Y499242D1*
X615661Y498737D1*
X615496Y498249D1*
X615268Y497787D1*
X614982Y497359D1*
X614642Y496972D1*
X614255Y496632D1*
X613827Y496346D1*
X613365Y496119D1*
X612877Y495953D1*
X612372Y495853D1*
X611858Y495819D1*
D1*
G37*
X592961Y535583D2*
D26*
Y614323D1*
X681937Y535583D2*
Y614323D1*
G36*
X827067Y967226D2*
X827033Y966712D1*
X826933Y966207D1*
X826767Y965719D1*
X826539Y965257D1*
X826253Y964829D1*
X825914Y964442D1*
X825527Y964102D1*
X825098Y963816D1*
X824637Y963588D1*
X824149Y963423D1*
X823644Y963322D1*
X823130Y963289D1*
X822616Y963322D1*
X822111Y963423D1*
X821623Y963588D1*
X821161Y963816D1*
X820733Y964102D1*
X820346Y964442D1*
X820006Y964829D1*
X819720Y965257D1*
X819493Y965719D1*
X819327Y966207D1*
X819227Y966712D1*
X819193Y967226D1*
D1*
X819227Y967740D1*
X819327Y968245D1*
X819493Y968732D1*
X819720Y969194D1*
X820006Y969622D1*
X820346Y970010D1*
X820733Y970349D1*
X821161Y970635D1*
X821623Y970863D1*
X822111Y971029D1*
X822616Y971129D1*
X823130Y971163D1*
X823644Y971129D1*
X824149Y971029D1*
X824637Y970863D1*
X825098Y970635D1*
X825527Y970349D1*
X825914Y970010D1*
X826253Y969622D1*
X826539Y969194D1*
X826767Y968732D1*
X826933Y968245D1*
X827033Y967740D1*
X827067Y967226D1*
D1*
G37*
X742815Y957777D2*
D26*
X569587D1*
X742815Y1154627D2*
X569587D1*
X424814Y446026D2*
D52*
Y415882D1*
X414766Y446026D2*
X434862D1*
X444126D2*
Y415882D1*
X464222Y446026D2*
Y415882D1*
X444126Y431667D2*
X464222D1*
X473485Y446026D2*
Y415882D1*
X486418D1*
X490729Y417341D1*
X492155Y418767D1*
X493581Y421619D1*
Y425930D1*
X492155Y428815D1*
X490729Y430241D1*
X486418Y431667D1*
X490729Y433126D1*
X492155Y434552D1*
X493581Y437404D1*
Y440289D1*
X492155Y443141D1*
X490729Y444600D1*
X486418Y446026D1*
X473485D1*
Y431667D2*
X486418D1*
X552101Y441715D2*
X549249Y444600D1*
X544938Y446026D1*
X539201D1*
X534890Y444600D1*
X532005Y441715D1*
Y438863D1*
X533464Y435978D1*
X534890Y434552D1*
X537742Y433126D1*
X546364Y430241D1*
X549249Y428815D1*
X550675Y427356D1*
X552101Y424504D1*
Y420193D1*
X549249Y417341D1*
X544938Y415882D1*
X539201D1*
X534890Y417341D1*
X532005Y420193D1*
X561365Y427356D2*
X578576D1*
Y430241D1*
X577150Y433126D1*
X575724Y434552D1*
X572839Y435978D1*
X568528D1*
X565676Y434552D1*
X562791Y431667D1*
X561365Y427356D1*
Y424504D1*
X562791Y420193D1*
X565676Y417341D1*
X568528Y415882D1*
X572839D1*
X575724Y417341D1*
X578576Y420193D1*
X587839Y435978D2*
Y415882D1*
Y430241D2*
X592150Y434552D1*
X595035Y435978D1*
X599313D1*
X602198Y434552D1*
X603624Y430241D1*
Y415882D1*
X628673Y431667D2*
X627247Y434552D1*
X622936Y435978D1*
X618625D1*
X614314Y434552D1*
X612888Y431667D1*
X614314Y428815D1*
X617199Y427356D1*
X624362Y425930D1*
X627247Y424504D1*
X628673Y421619D1*
Y420193D1*
X627247Y417341D1*
X622936Y415882D1*
X618625D1*
X614314Y417341D1*
X612888Y420193D1*
X645099Y435978D2*
X642247Y434552D1*
X639362Y431667D1*
X637936Y427356D1*
Y424504D1*
X639362Y420193D1*
X642247Y417341D1*
X645099Y415882D1*
X649410D1*
X652295Y417341D1*
X655147Y420193D1*
X656606Y424504D1*
Y427356D1*
X655147Y431667D1*
X652295Y434552D1*
X649410Y435978D1*
X645099D1*
X665870D2*
Y415882D1*
Y427356D2*
X667329Y431667D1*
X670181Y434552D1*
X673066Y435978D1*
X677377D1*
X702426Y431667D2*
X701000Y434552D1*
X696689Y435978D1*
X692378D1*
X688067Y434552D1*
X686641Y431667D1*
X688067Y428815D1*
X690952Y427356D1*
X698115Y425930D1*
X701000Y424504D1*
X702426Y421619D1*
Y420193D1*
X701000Y417341D1*
X696689Y415882D1*
X692378D1*
X688067Y417341D1*
X686641Y420193D1*
X740850Y435978D2*
X749472Y415882D1*
X758061Y435978D1*
X767324Y440255D2*
X770209Y441715D1*
X774520Y445992D1*
Y415882D1*
X802736Y1342788D2*
X799884Y1341362D1*
X796999Y1338477D1*
X795573Y1335625D1*
Y1329888D1*
X796999Y1327003D1*
X799884Y1324151D1*
X802736Y1322692D1*
X807047Y1321266D1*
X814243D1*
X818521Y1322692D1*
X821406Y1324151D1*
X824258Y1327003D1*
X825717Y1329888D1*
Y1335625D1*
X824258Y1338477D1*
X821406Y1341362D1*
X818521Y1342788D1*
X801343Y1352052D2*
X799884Y1354937D1*
X795606Y1359248D1*
X825717D1*
X867263Y1336338D2*
X864411Y1334912D1*
X861526Y1332027D1*
X860100Y1329175D1*
Y1323439D1*
X861526Y1320553D1*
X864411Y1317702D1*
X867263Y1316242D1*
X871574Y1314816D1*
X878770D1*
X883048Y1316242D1*
X885933Y1317702D1*
X888785Y1320553D1*
X890244Y1323439D1*
Y1329175D1*
X888785Y1332027D1*
X885933Y1334912D1*
X883048Y1336338D1*
X867296Y1347061D2*
X865870D1*
X862985Y1348487D1*
X861559Y1349913D1*
X860133Y1352798D1*
Y1358535D1*
X861559Y1361387D1*
X862985Y1362813D1*
X865870Y1364272D1*
X868722D1*
X871607Y1362813D1*
X875885Y1359961D1*
X890244Y1345602D1*
Y1365698D1*
X433985Y1102282D2*
X431133Y1100856D1*
X428248Y1097971D1*
X426822Y1095119D1*
Y1089382D1*
X428248Y1086497D1*
X431133Y1083645D1*
X433985Y1082186D1*
X438296Y1080760D1*
X445492D1*
X449770Y1082186D1*
X452655Y1083645D1*
X455507Y1086497D1*
X456966Y1089382D1*
Y1095119D1*
X455507Y1097971D1*
X452655Y1100856D1*
X449770Y1102282D1*
X426855Y1114431D2*
Y1130182D1*
X438329Y1121594D1*
Y1125905D1*
X439755Y1128756D1*
X441181Y1130182D1*
X445492Y1131642D1*
X448344D1*
X452655Y1130182D1*
X455540Y1127331D1*
X456966Y1123019D1*
Y1118708D1*
X455540Y1114431D1*
X454081Y1113005D1*
X451229Y1111546D1*
X813886Y923330D2*
X816738Y924756D1*
X819623Y927641D1*
X821049Y930493D1*
Y936230D1*
X819623Y939115D1*
X816738Y941967D1*
X813886Y943426D1*
X809575Y944852D1*
X802379D1*
X798101Y943426D1*
X795216Y941967D1*
X792364Y939115D1*
X790905Y936230D1*
Y930493D1*
X792364Y927641D1*
X795216Y924756D1*
X798101Y923330D1*
X790906Y899707D2*
X821017Y899708D1*
X800953Y914066D1*
X800954Y892544D1*
X958276Y923332D2*
X961128Y924758D1*
X964013Y927643D1*
X965439Y930495D1*
Y936232D1*
X964013Y939117D1*
X961127Y941969D1*
X958276Y943428D1*
X953964Y944854D1*
X946768D1*
X942491Y943428D1*
X939606Y941969D1*
X936754Y939117D1*
X935295Y936232D1*
Y930495D1*
X936754Y927643D1*
X939606Y924758D1*
X942491Y923332D1*
X965406Y896858D2*
Y911184D1*
X952506Y912609D1*
X953932Y911183D1*
X955391Y906872D1*
X955392Y902595D1*
X953933Y898284D1*
X951081Y895398D1*
X946770Y893972D1*
X943918D1*
X939607Y895398D1*
X936722Y898283D1*
X935296Y902594D1*
X935295Y906872D1*
X936721Y911183D1*
X938180Y912609D1*
X941032Y914068D1*
X478143Y936014D2*
X479569Y933162D1*
X482455Y930277D1*
X485306Y928852D1*
X491043D1*
X493928Y930278D1*
X496780Y933163D1*
X498239Y936015D1*
X499665Y940326D1*
Y947522D1*
X498239Y951800D1*
X496779Y954685D1*
X493927Y957537D1*
X491042Y958996D1*
X485305D1*
X482454Y957536D1*
X479569Y954684D1*
X478143Y951799D1*
X451669Y933161D2*
X453095Y930309D1*
X457406Y928884D1*
X460258D1*
X464569Y930310D1*
X467454Y934621D1*
X468880Y941784D1*
X468879Y948947D1*
X467453Y954684D1*
X464568Y957569D1*
X460257Y958995D1*
X458831D1*
X454553Y957568D1*
X451668Y954683D1*
X450242Y950372D1*
Y948946D1*
X451668Y944635D1*
X454554Y941783D1*
X458832Y940358D1*
X460258D1*
X464569Y941784D1*
X467453Y944636D1*
X468879Y948947D1*
X472621Y792265D2*
X474047Y789413D1*
X476932Y786528D1*
X479784Y785102D1*
X485521D1*
X488406Y786528D1*
X491258Y789413D1*
X492717Y792265D1*
X494143Y796576D1*
Y803772D1*
X492717Y808049D1*
X491258Y810935D1*
X488406Y813786D1*
X485521Y815246D1*
X479784D1*
X476932Y813786D1*
X474047Y810935D1*
X472621Y808049D1*
X457620Y815246D2*
X443261Y785135D1*
X463357D1*
X808548Y847167D2*
X807122Y850019D1*
X804237Y852904D1*
X801385Y854330D1*
X795648D1*
X792763Y852904D1*
X789911Y850019D1*
X788452Y847167D1*
X787026Y842856D1*
Y835660D1*
X788452Y831382D1*
X789911Y828497D1*
X792763Y825645D1*
X795648Y824186D1*
X801385D1*
X804237Y825645D1*
X807122Y828497D1*
X808548Y831382D1*
X824974Y854297D2*
X820697Y852871D1*
X819237Y850019D1*
Y847134D1*
X820697Y844282D1*
X823548Y842823D1*
X829285Y841397D1*
X833596Y839971D1*
X836448Y837086D1*
X837874Y834234D1*
Y829923D1*
X836448Y827071D1*
X835022Y825612D1*
X830711Y824186D1*
X824974D1*
X820697Y825612D1*
X819237Y827071D1*
X817811Y829923D1*
Y834234D1*
X819237Y837086D1*
X822122Y839971D1*
X826400Y841397D1*
X832137Y842823D1*
X835022Y844282D1*
X836448Y847134D1*
Y850019D1*
X835022Y852871D1*
X830711Y854297D1*
X824974D1*
X565655Y483986D2*
X567081Y481134D1*
X569966Y478249D1*
X572818Y476823D1*
X578555D1*
X581440Y478249D1*
X584292Y481134D1*
X585751Y483986D1*
X587177Y488297D1*
Y495493D1*
X585751Y499771D1*
X584292Y502656D1*
X581440Y505508D1*
X578555Y506967D1*
X572818D1*
X569966Y505508D1*
X567081Y502656D1*
X565655Y499771D1*
X537721Y486871D2*
X539180Y491182D1*
X542032Y494067D1*
X546343Y495493D1*
X547769D1*
X552080Y494067D1*
X554932Y491182D1*
X556391Y486871D1*
Y485445D1*
X554932Y481134D1*
X552080Y478282D1*
X547769Y476857D1*
X546343D1*
X542032Y478282D1*
X539180Y481134D1*
X537721Y486871D1*
Y494067D1*
X539180Y501230D1*
X542032Y505541D1*
X546343Y506967D1*
X549195D1*
X553506Y505541D1*
X554932Y502656D1*
X662101Y648514D2*
X663527Y645662D1*
X666412Y642777D1*
X669264Y641351D1*
X675001D1*
X677886Y642778D1*
X680738Y645663D1*
X682197Y648515D1*
X683623Y652826D1*
Y660022D1*
X682197Y664300D1*
X680738Y667185D1*
X677886Y670036D1*
X675001Y671495D1*
X669264D1*
X666412Y670036D1*
X663527Y667184D1*
X662101Y664299D1*
X652838Y647121D2*
X649953Y645662D1*
X645642Y641384D1*
X645641Y671495D1*
X627756Y641384D2*
X632067Y642810D1*
X634952Y647121D1*
X636378Y654284D1*
Y658595D1*
X634952Y665758D1*
X632067Y670069D1*
X627755Y671494D1*
X624904D1*
X620593Y670068D1*
X617741Y665757D1*
X616282Y658594D1*
Y654283D1*
X617741Y647120D1*
X620593Y642809D1*
X624904Y641384D1*
X627756D1*
X617741Y647120D2*
X634952Y665758D1*
X926922Y1539011D2*
Y1508867D1*
X936970D1*
X941281Y1510326D1*
X944166Y1513178D1*
X945592Y1516063D1*
X947018Y1520341D1*
Y1527537D1*
X945592Y1531848D1*
X944166Y1534700D1*
X941281Y1537585D1*
X936970Y1539011D1*
X926922D1*
X956281Y1533241D2*
X959166Y1534700D1*
X963477Y1538978D1*
Y1508867D1*
X780193Y1530180D2*
Y1553128D1*
X781619Y1557439D1*
X783078Y1558865D1*
X785930Y1560324D1*
X788815D1*
X791667Y1558865D1*
X793093Y1557439D1*
X794552Y1553128D1*
Y1550276D1*
X770930Y1535950D2*
X768045Y1534491D1*
X763734Y1530213D1*
Y1560324D1*
X582142Y1262942D2*
X595042D1*
X599353Y1264401D1*
X600812Y1265827D1*
X602238Y1268679D1*
Y1271564D1*
X600812Y1274416D1*
X599353Y1275875D1*
X595042Y1277301D1*
X582142D1*
Y1247157D1*
X592190Y1262942D2*
X602238Y1247157D1*
X611502Y1271531D2*
X614387Y1272990D1*
X618698Y1277268D1*
Y1247157D1*
X575695Y1314971D2*
X588595D1*
X592906Y1316430D1*
X594365Y1317856D1*
X595791Y1320708D1*
Y1323593D1*
X594365Y1326445D1*
X592906Y1327904D1*
X588595Y1329330D1*
X575695D1*
Y1299186D1*
X585743Y1314971D2*
X595791Y1299186D1*
X606513Y1322134D2*
Y1323560D1*
X607939Y1326445D1*
X609365Y1327871D1*
X612250Y1329297D1*
X617987D1*
X620839Y1327871D1*
X622265Y1326445D1*
X623724Y1323560D1*
Y1320708D1*
X622265Y1317823D1*
X619413Y1313545D1*
X605054Y1299186D1*
X625150D1*
X922430Y1316243D2*
Y1329143D1*
X920971Y1333454D1*
X919545Y1334913D1*
X916693Y1336339D1*
X913808D1*
X910956Y1334913D1*
X909497Y1333454D1*
X908071Y1329143D1*
Y1316243D1*
X938215D1*
X922430Y1326291D2*
X938215Y1336339D1*
X908105Y1348488D2*
Y1364240D1*
X919579Y1355651D1*
Y1359962D1*
X921004Y1362814D1*
X922430Y1364240D1*
X926741Y1365699D1*
X929593D1*
X933904Y1364240D1*
X936789Y1361388D1*
X938215Y1357077D1*
Y1352766D1*
X936789Y1348488D1*
X935330Y1347062D1*
X932478Y1345603D1*
X711961Y1212009D2*
Y1224909D1*
X710502Y1229220D1*
X709076Y1230679D1*
X706224Y1232105D1*
X703339D1*
X700487Y1230679D1*
X699028Y1229220D1*
X697602Y1224908D1*
Y1212009D1*
X727746Y1212010D1*
X711961Y1222057D2*
X727746Y1232106D1*
X727745Y1255728D2*
X697634Y1255727D1*
X717697Y1241369D1*
Y1262891D1*
X891182Y1118973D2*
Y1131873D1*
X889723Y1136184D1*
X888297Y1137643D1*
X885445Y1139069D1*
X882560D1*
X879708Y1137643D1*
X878249Y1136184D1*
X876823Y1131873D1*
Y1118973D1*
X906967D1*
X891182Y1129021D2*
X906967Y1139069D1*
X876857Y1165543D2*
Y1151218D1*
X889756Y1149792D1*
X888330Y1151218D1*
X886871Y1155529D1*
Y1159807D1*
X888330Y1164118D1*
X891182Y1167003D1*
X895493Y1168429D1*
X898345D1*
X902656Y1167003D1*
X905541Y1164118D1*
X906967Y1159807D1*
Y1155529D1*
X905541Y1151218D1*
X904082Y1149792D1*
X901230Y1148333D1*
X841180Y1119703D2*
Y1132602D1*
X839721Y1136914D1*
X838295Y1138373D1*
X835443Y1139799D1*
X832558D1*
X829706Y1138373D1*
X828247Y1136914D1*
X826821Y1132602D1*
Y1119703D1*
X856965D1*
X841180Y1129751D2*
X856965Y1139799D1*
X831132Y1166273D2*
X828280Y1164847D1*
X826854Y1160536D1*
Y1157684D1*
X828280Y1153373D1*
X832591Y1150488D1*
X839754Y1149062D1*
X846917D1*
X852654Y1150488D1*
X855539Y1153373D1*
X856965Y1157684D1*
Y1159110D1*
X855539Y1163388D1*
X852654Y1166273D1*
X848343Y1167699D1*
X846917D1*
X842606Y1166273D1*
X839754Y1163388D1*
X838328Y1159110D1*
Y1157684D1*
X839754Y1153373D1*
X842606Y1150488D1*
X846917Y1149062D1*
X656473Y889970D2*
X669373D1*
X673684Y891429D1*
X675143Y892855D1*
X676569Y895707D1*
Y898592D1*
X675143Y901444D1*
X673684Y902903D1*
X669373Y904329D1*
X656473D1*
Y874185D1*
X666521Y889970D2*
X676569Y874185D1*
X691570D2*
X705929Y904296D1*
X685833D1*
X656490Y758719D2*
X669390D1*
X673701Y760178D1*
X675160Y761604D1*
X676586Y764456D1*
Y767341D1*
X675160Y770193D1*
X673701Y771652D1*
X669390Y773078D1*
X656490D1*
Y742934D1*
X666538Y758719D2*
X676586Y742934D1*
X693012Y773045D2*
X688734Y771619D1*
X687275Y768767D1*
Y765882D1*
X688734Y763030D1*
X691586Y761571D1*
X697323Y760145D1*
X701634Y758719D1*
X704486Y755834D1*
X705912Y752982D1*
Y748671D1*
X704486Y745819D1*
X703060Y744360D1*
X698749Y742934D1*
X693012D1*
X688734Y744360D1*
X687275Y745819D1*
X685849Y748671D1*
Y752982D1*
X687275Y755834D1*
X690160Y758719D1*
X694438Y760145D1*
X700175Y761571D1*
X703060Y763030D1*
X704486Y765882D1*
Y768767D1*
X703060Y771619D1*
X698749Y773045D1*
X693012D1*
X782494Y1014890D2*
X804016D1*
X808327Y1016316D1*
X811179Y1019201D1*
X812638Y1023512D1*
Y1026364D1*
X811179Y1030675D1*
X808327Y1033560D1*
X804016Y1034986D1*
X782494D1*
X788264Y1044249D2*
X786805Y1047134D1*
X782527Y1051445D1*
X812638Y1051446D1*
X925197Y643764D2*
X946719D1*
X951030Y645190D1*
X953882Y648075D1*
X955341Y652386D1*
Y655238D1*
X953882Y659549D1*
X951030Y662434D1*
X946719Y663860D1*
X925197D1*
X932393Y674583D2*
X930968D1*
X928082Y676009D1*
X926657Y677435D1*
X925231Y680320D1*
Y686057D1*
X926657Y688909D1*
X928082Y690335D1*
X930968Y691794D1*
X933819D1*
X936705Y690335D1*
X940982Y687483D1*
X955341Y673124D1*
Y693220D1*
X555734Y965440D2*
Y943918D1*
X557160Y939607D1*
X560045Y936756D1*
X564356Y935296D1*
X567208D1*
X571519Y936756D1*
X574404Y939607D1*
X575830Y943918D1*
Y965440D1*
X587979Y965407D2*
X603731D1*
X595142Y953933D1*
X599453D1*
X602305Y952507D1*
X603731Y951081D1*
X605190Y946770D1*
Y943918D1*
X603731Y939607D1*
X600879Y936722D1*
X596568Y935296D1*
X592257D1*
X587979Y936722D1*
X586553Y938181D1*
X585094Y941033D1*
X513602Y636087D2*
Y657609D1*
X512176Y661920D1*
X509291Y664772D1*
X504980Y666231D1*
X502128D1*
X497817Y664772D1*
X494932Y661920D1*
X493506Y657609D1*
Y636087D1*
X469884Y666231D2*
Y636120D1*
X484243Y656183D1*
X462721D1*
X556802Y554949D2*
X578324D1*
X582635Y556375D1*
X585487Y559260D1*
X586946Y563571D1*
Y566423D1*
X585487Y570734D1*
X582635Y573619D1*
X578324Y575045D1*
X556802D1*
X556836Y601520D2*
Y587194D1*
X569735Y585768D1*
X568309Y587194D1*
X566850Y591505D1*
Y595783D1*
X568309Y600094D1*
X571161Y602979D1*
X575472Y604405D1*
X578324D1*
X582635Y602979D1*
X585520Y600094D1*
X586946Y595783D1*
Y591505D1*
X585520Y587194D1*
X584061Y585768D1*
X581209Y584309D1*
X713762Y1162292D2*
Y1183814D1*
X712336Y1188125D1*
X709451Y1190977D1*
X705140Y1192436D1*
X702288D1*
X697977Y1190977D1*
X695092Y1188125D1*
X693666Y1183814D1*
Y1162292D1*
X667192Y1166603D2*
X668617Y1163751D1*
X672928Y1162325D1*
X675780D1*
X680091Y1163751D1*
X682976Y1168062D1*
X684402Y1175225D1*
Y1182388D1*
X682976Y1188125D1*
X680091Y1191010D1*
X675780Y1192436D1*
X674354D1*
X670077Y1191010D1*
X667192Y1188125D1*
X665766Y1183814D1*
Y1182388D1*
X667192Y1178077D1*
X670077Y1175225D1*
X674354Y1173799D1*
X675780D1*
X680091Y1175225D1*
X682976Y1178077D1*
X684402Y1182388D1*
M02*
